<?xml version="1.0" standalone="no"?>
<!DOCTYPE svg PUBLIC "-//W3C//DTD SVG 20010904//EN"
 "http://www.w3.org/TR/2001/REC-SVG-20010904/DTD/svg10.dtd">
<svg version="1.0" xmlns="http://www.w3.org/2000/svg"
 width="174.000000pt" height="174.000000pt" viewBox="0 0 174.000000 174.000000"
 preserveAspectRatio="xMidYMid meet">
<metadata>
Created by potrace 1.14, written by Peter Selinger 2001-2017
</metadata>
<g transform="translate(0.000000,174.000000) scale(0.100000,-0.100000)"
fill="#000000" stroke="none">
<path d="M862 1728 c-17 -22 -59 -150 -78 -238 -29 -139 -23 -379 13 -525 2
-11 -22 27 -55 85 -98 172 -239 316 -363 372 -67 30 -72 -4 -22 -146 24 -65
41 -101 92 -190 21 -37 17 -34 -60 35 -161 145 -274 284 -345 424 l-46 90 6
-54 c18 -149 123 -359 292 -584 l37 -48 -49 2 c-99 4 -124 0 -124 -19 0 -10
19 -33 43 -51 48 -37 253 -141 279 -141 9 0 38 -26 63 -57 l47 -57 -31 -27
c-17 -14 -28 -29 -24 -33 3 -3 26 -6 49 -6 l43 0 -112 -110 c-61 -60 -108
-112 -105 -116 4 -3 31 17 60 46 54 54 175 150 188 150 7 0 153 -191 180 -236
12 -19 5 -35 -59 -149 -40 -70 -71 -131 -69 -136 3 -8 97 137 144 222 9 15 13
17 21 7 18 -22 113 -179 113 -186 0 -4 9 -18 20 -32 30 -37 20 -6 -24 74 -21
39 -52 96 -69 127 l-31 56 39 54 c102 141 148 199 157 199 14 0 140 -102 196
-158 24 -24 47 -41 50 -38 8 9 -106 126 -203 208 l-29 26 58 -2 c69 -1 83 15
37 41 -38 22 -38 29 -2 70 19 23 49 40 100 58 121 41 269 122 315 174 31 34 9
43 -99 42 -94 -1 -97 0 -84 18 152 208 192 271 244 383 35 76 64 175 72 243 4
37 0 33 -39 -45 -24 -47 -66 -117 -93 -155 -49 -69 -221 -252 -271 -289 l-26
-18 24 38 c47 75 108 247 108 301 0 30 -13 29 -69 -3 -150 -87 -282 -232 -380
-419 -32 -62 -38 -59 -21 10 48 196 22 507 -56 672 -26 55 -35 62 -52 41z
m578 -681 l-73 -104 -71 -21 -71 -21 30 22 c55 40 160 134 205 184 25 27 47
48 49 47 2 -2 -29 -50 -69 -107z m-1000 -90 c42 -36 49 -45 27 -37 -15 5 -39
12 -53 14 -36 7 -51 23 -124 129 l-63 92 79 -75 c43 -42 104 -97 134 -123z
m261 -269 c48 -2 43 -7 -27 -29 -54 -17 -55 -17 -75 4 -11 12 -25 29 -29 38
-8 14 -4 15 41 3 28 -7 68 -14 90 -16z m453 -10 c-10 -13 -20 -25 -21 -27 -3
-5 -96 20 -106 29 -4 3 16 7 45 9 29 1 55 4 57 7 2 2 13 4 24 4 20 0 20 0 1
-22z m-289 -101 c-3 -88 6 -125 25 -97 5 8 7 50 4 92 -2 43 -2 78 1 78 5 0
142 -85 153 -95 2 -2 -32 -50 -75 -107 -43 -58 -84 -113 -90 -124 -13 -19 -13
-19 -25 0 -14 20 -119 161 -152 204 -16 20 -17 26 -5 33 8 5 46 29 84 53 39
25 73 45 76 45 4 1 5 -37 4 -82z"/>
</g>
</svg>
